<?xml version="1.0" standalone="no"?>
<!DOCTYPE svg PUBLIC "-//W3C//DTD SVG 20010904//EN"
 "http://www.w3.org/TR/2001/REC-SVG-20010904/DTD/svg10.dtd">
<svg version="1.0" xmlns="http://www.w3.org/2000/svg"
 width="512.000000pt" height="512.000000pt" viewBox="0 0 512.000000 512.000000"
 preserveAspectRatio="xMidYMid meet">
<metadata>
Created by potrace 1.14, written by Peter Selinger 2001-2017
</metadata>
<g transform="translate(0.000000,512.000000) scale(0.100000,-0.100000)"
fill="#000000" stroke="none">
<path d="M1301 5007 c-153 -207 -252 -518 -291 -912 -9 -87 -5 -530 5 -610 4
-27 10 -75 14 -106 l7 -57 -50 -53 c-68 -73 -164 -193 -204 -255 -56 -88 -109
-244 -83 -244 5 0 53 20 106 45 99 46 164 75 171 75 3 0 -20 -32 -50 -71 -115
-152 -222 -370 -265 -542 -19 -75 -37 -247 -26 -247 3 0 17 24 31 53 49 96
105 168 156 201 l26 17 -35 -92 c-61 -164 -122 -439 -96 -439 4 0 19 17 33 38
28 42 149 172 161 172 4 0 6 -48 6 -107 -2 -153 14 -241 68 -358 46 -101 76
-140 263 -330 165 -168 210 -216 266 -285 l29 -35 -7 45 c-13 91 -18 116 -26
155 -5 22 -7 41 -6 43 4 3 142 -182 193 -258 60 -89 96 -156 118 -218 13 -35
25 -60 28 -55 9 14 16 92 18 206 1 59 3 106 5 105 1 -2 35 -52 76 -113 191
-286 313 -442 452 -580 61 -61 125 -117 143 -124 31 -12 35 -11 81 22 64 48
197 188 282 297 19 25 37 47 40 50 11 10 185 256 250 352 35 53 65 96 66 95 1
-1 4 -69 8 -152 3 -82 6 -151 6 -152 0 -2 4 -3 9 -3 5 0 13 19 19 43 10 37 95
198 123 230 5 7 43 59 85 116 41 57 84 112 94 124 l19 20 -4 -24 c-2 -13 -6
-40 -9 -59 -6 -39 -13 -80 -22 -125 l-6 -30 24 25 c12 14 43 48 67 75 24 28
123 131 220 230 103 105 190 205 210 238 79 134 123 354 100 505 -3 23 -3 42
0 42 13 0 100 -88 150 -153 29 -37 55 -67 57 -67 9 0 -33 243 -47 271 -4 9
-10 27 -13 40 -2 13 -20 68 -40 122 -19 53 -33 97 -30 97 3 0 21 -12 40 -26
41 -32 96 -105 134 -180 31 -60 38 -60 35 1 -13 232 -117 487 -296 727 -32 43
-57 78 -55 78 2 0 51 -22 109 -49 102 -49 176 -81 183 -81 8 0 -10 69 -34 130
-41 106 -130 231 -261 368 -28 30 -49 57 -47 60 2 4 7 41 11 82 3 41 8 91 11
110 9 65 11 494 3 570 -4 41 -10 95 -13 120 -10 94 -44 264 -68 340 -22 71
-40 126 -48 145 -49 119 -75 175 -82 175 -4 0 -7 3 -6 8 3 9 -34 76 -69 126
-31 43 -53 57 -53 31 0 -26 -83 -186 -130 -250 -69 -95 -194 -212 -335 -315
-71 -52 -132 -97 -135 -100 -3 -3 -25 -21 -51 -38 l-45 -33 -45 24 c-50 26
-142 55 -199 64 -101 15 -137 17 -230 17 -180 -2 -317 -29 -445 -89 l-70 -34
-65 43 c-36 24 -91 58 -123 77 -178 103 -386 346 -537 627 l-18 33 -41 -54z"/>
</g>
</svg>
